<?xml version="1.0" encoding="UTF-8" standalone="no"?>
<!-- Created with Inkscape (http://www.inkscape.org/) -->

<svg
   width="160mm"
   height="160mm"
   viewBox="0 0 160 160"
   version="1.1"
   id="svg1"
   inkscape:export-filename="encorelando-logo.svg"
   inkscape:export-xdpi="100"
   inkscape:export-ydpi="100"
   inkscape:version="1.3.2 (091e20e, 2023-11-25)"
   sodipodi:docname="encorelando-logo-gradient.svg"
   xmlns:inkscape="http://www.inkscape.org/namespaces/inkscape"
   xmlns:sodipodi="http://sodipodi.sourceforge.net/DTD/sodipodi-0.dtd"
   xmlns:xlink="http://www.w3.org/1999/xlink"
   xmlns="http://www.w3.org/2000/svg"
   xmlns:svg="http://www.w3.org/2000/svg">
  <sodipodi:namedview
     id="namedview1"
     pagecolor="#ffffff"
     bordercolor="#000000"
     borderopacity="0.25"
     inkscape:showpageshadow="2"
     inkscape:pageopacity="0.0"
     inkscape:pagecheckerboard="0"
     inkscape:deskcolor="#d1d1d1"
     inkscape:document-units="mm"
     inkscape:zoom="1.2988923"
     inkscape:cx="334.5158"
     inkscape:cy="309.49448"
     inkscape:window-width="1672"
     inkscape:window-height="973"
     inkscape:window-x="0"
     inkscape:window-y="25"
     inkscape:window-maximized="0"
     inkscape:current-layer="layer1" />
  <defs
     id="defs1">
    <linearGradient
       id="linearGradient1">
      <stop
         style="stop-color:#0d0d0d;stop-opacity:1;"
         offset="0"
         id="stop3" />
      <stop
         style="stop-color:#0d0d0d;stop-opacity:0;"
         offset="1"
         id="stop4" />
    </linearGradient>
    <linearGradient
       id="linearGradient1-1">
      <stop
         style="stop-color:#ff6a00;stop-opacity:1;"
         offset="0"
         id="stop1" />
      <stop
         style="stop-color:#ff3cac;stop-opacity:1;"
         offset="0.41659266"
         id="stop5" />
      <stop
         style="stop-color:#7b2ff7;stop-opacity:1;"
         offset="0.62780213"
         id="stop6" />
      <stop
         style="stop-color:#00c3ff;stop-opacity:1;"
         offset="1"
         id="stop7" />
    </linearGradient>
    <linearGradient
       inkscape:collect="always"
       xlink:href="#linearGradient1-1"
       id="linearGradient2"
       x1="58.065147"
       y1="111.68374"
       x2="173.46622"
       y2="217.60733"
       gradientUnits="userSpaceOnUse"
       gradientTransform="translate(8.6516135,0.27709022)" />
  </defs>
  <g
     inkscape:label="Layer 1"
     inkscape:groupmode="layer"
     id="layer1"
     transform="translate(-33.213844,-68.83039)">
    <path
       d="m 109.03493,228.3442 c -12.722671,-1.23934 -23.177107,-7.20791 -27.872435,-15.91274 -0.793366,-1.47086 -2.131716,-4.66849 -2.131716,-5.09319 0,-0.0136 2.113359,-0.031 4.696354,-0.0386 8.33836,-0.0246 14.890961,-1.54813 26.678947,-6.20311 8.00581,-3.16143 19.64788,-10.62633 27.23106,-17.46057 0.72824,-0.65632 1.89274,-1.65712 2.58779,-2.224 l 1.26371,-1.0307 0.68035,0.63382 c 1.09126,1.01665 4.18383,5.24315 5.23234,7.15087 2.65992,4.83959 3.9558,10.82257 3.325,15.35124 -0.82984,5.95759 -3.22278,10.80205 -7.33386,14.84729 -3.07929,3.02997 -5.73864,4.76985 -10.12211,6.6224 -6.50494,2.74913 -16.40277,4.12025 -24.23543,3.35726 z m 36.58128,-7.05222 c 4.49308,-4.0489 5.96915,-5.25107 8.55623,-6.96851 1.38245,-0.91774 2.96003,-2.01722 3.50573,-2.44328 l 0.99219,-0.77465 v -23.79027 c 0,-18.85618 -0.0686,-23.79013 -0.33073,-23.78959 -0.64243,0.001 -5.33374,3.3576 -7.54063,5.39478 l -0.85989,0.79377 -4e-5,8.6132 -3e-5,8.6132 -1.3502,-2.10731 -1.35019,-2.10731 -0.0385,-5.23488 c -0.0212,-2.87918 -0.0803,-5.23488 -0.13139,-5.23488 -0.0511,0 -1.1823,1.02837 -2.51385,2.28526 -15.33188,14.47228 -30.31993,23.32468 -46.474101,27.44901 -5.195268,1.32641 -8.949888,1.81468 -13.890625,1.80641 -5.118407,-0.009 -8.32268,-0.49285 -12.699547,-1.91939 -6.506226,-2.12054 -11.395475,-5.17685 -16.327155,-10.20623 -2.573192,-2.62418 -3.442319,-3.71535 -5.618636,-7.05412 -8.668594,-13.29879 -10.187326,-32.86618 -3.589752,-46.2504 4.133897,-8.38626 11.241643,-14.63935 18.920507,-16.64547 2.157312,-0.5636 6.355085,-0.75487 8.520012,-0.38823 3.390569,0.57423 7.114397,2.14268 10.675598,4.49651 2.106457,1.39229 9.045221,8.14039 9.8522,9.58148 l 0.47281,0.84434 -1.107821,0.8025 c -0.609301,0.44138 -1.281107,0.8025 -1.4929,0.8025 -0.211794,0 -1.711976,-1.35265 -3.33374,-3.0059 -2.874523,-2.93032 -6.389571,-5.77201 -8.422814,-6.80929 l -1.008137,-0.51431 -0.0154,29.44027 -0.0154,29.44027 -1.416458,2.91042 -1.416457,2.91042 -0.02336,-32.84209 c -0.01844,-25.92854 -0.09298,-32.89961 -0.354087,-33.1154 -1.021656,-0.84434 -7.391159,-1.63114 -8.334374,-1.02953 -0.261647,0.16689 -0.33073,7.00884 -0.33073,32.75588 v 32.54493 l -1.389062,-0.7444 -1.389063,-0.74439 -0.06722,-31.56906 -0.06722,-31.56904 -0.594236,0.18033 c -1.296167,0.39337 -4.651764,2.32197 -6.216631,3.57297 l -1.653646,1.32197 v 25.12881 c 1.6e-5,13.82084 -0.07615,25.12881 -0.169254,25.12881 -0.258818,0 -0.798679,-0.75802 -1.884375,-2.64584 l -0.989063,-1.71979 -0.132292,-21.2361 -0.132292,-21.23611 -1.114189,1.65694 c -1.465011,2.17866 -2.976769,5.316 -4.007337,8.3164 -2.693868,7.84296 -2.637845,18.89274 0.138353,27.2886 6.088809,18.41396 21.754619,29.18546 40.1188,27.58491 12.738614,-1.11026 26.429134,-6.48008 39.741444,-15.58776 5.05854,-3.46083 9.82748,-7.45423 18.38854,-15.39816 9.07491,-8.42073 14.11504,-11.34547 19.71146,-11.43838 2.64333,-0.0439 4.44005,0.37606 7.14375,1.66968 5.00408,2.39427 8.61841,6.71785 10.62805,12.71363 2.40409,7.1726 1.65468,14.62111 -2.2738,22.59969 -3.55271,7.2154 -8.82278,13.30143 -16.92018,19.53992 -4.18566,3.22476 -9.29243,6.00666 -15.51115,8.44965 -5.82587,2.28866 -5.9556,2.26525 -2.86769,-0.51739 z m 21.58696,-16.68484 2.84427,-2.52705 v -19.9525 -19.9525 l -0.99219,-0.4319 c -1.17676,-0.51223 -5.6057,-0.59052 -6.74687,-0.11926 l -0.72761,0.30048 v 23.70926 23.70926 l 1.38907,-1.10437 c 0.76398,-0.60741 2.66898,-2.24155 4.23333,-3.63142 z m 8.01092,-8.68096 c 4.02108,-5.35976 6.30028,-12.20445 5.84441,-17.55147 -0.37434,-4.39085 -1.85117,-8.26445 -4.32704,-11.34944 -1.10032,-1.37102 -3.33059,-3.50027 -3.66634,-3.50027 -0.059,0 -0.10348,7.94743 -0.0988,17.66094 0.007,13.92504 0.0766,17.57685 0.33073,17.26344 0.17727,-0.21863 1.03996,-1.35406 1.91709,-2.5232 z m -94.826017,0.25857 c -1.072502,-0.19576 -2.003017,-0.40894 -2.067817,-0.47374 -0.189034,-0.18904 1.69485,-4.58979 3.085558,-7.20786 0.702998,-1.32342 2.584146,-4.41905 4.180329,-6.87916 4.387985,-6.76298 5.185577,-8.66128 5.158777,-12.27815 -0.01519,-2.05065 -0.390543,-3.37089 -2.170168,-7.63324 -1.176776,-2.81848 -1.606473,-4.72893 -1.606473,-7.14245 0,-2.89604 0.392102,-4.55278 1.669108,-7.05244 0.775025,-1.51706 1.647394,-2.68494 3.079557,-4.12272 3.308509,-3.3215 5.98416,-4.60695 12.220556,-5.87104 l 4.13693,-0.83854 0.15835,-2.78593 c 0.3055,-5.37469 0.77859,-32.16785 0.58994,-33.4102 -0.19285,-1.269922 -1.06691,-2.605007 -2.04987,-3.131075 -0.39293,-0.210286 -0.71508,-0.147661 -1.39176,0.270547 -1.42921,0.883303 -2.57505,0.69296 -3.20906,-0.533085 -0.52989,-1.024694 -0.4863,-1.635665 0.17682,-2.478696 0.84112,-1.0693 1.67644,-1.298236 2.79691,-0.766538 1.53841,0.730023 1.79856,0.356045 1.79856,-2.585513 0,-2.376371 -0.026,-2.488396 -0.59619,-2.569366 -0.3279,-0.04656 -0.9095,0.161795 -1.29245,0.46302 -1.31197,1.031994 -2.82304,0.591625 -3.24773,-0.946488 -0.63778,-2.309837 1.25525,-3.728591 3.29389,-2.468645 1.41156,0.872395 1.5655,0.548532 1.2845,-2.70233 -0.22311,-2.581047 -0.26914,-2.732285 -0.85698,-2.815505 -0.36234,-0.05129 -0.86379,0.139954 -1.20334,0.458952 -0.32018,0.300789 -0.95548,0.621559 -1.41178,0.712819 -0.66621,0.133241 -0.96127,0.03429 -1.49787,-0.502311 -0.96961,-0.9696 -1.13993,-1.948577 -0.53263,-3.061328 0.73131,-1.339955 1.67478,-1.569219 2.93464,-0.71312 1.16296,0.790249 2.08673,0.878781 2.25766,0.216368 0.0657,-0.254662 -0.0318,-1.177396 -0.21674,-2.050521 -0.57798,-2.729034 -0.50469,-3.196341 0.622,-3.965945 1.3918,-0.950698 4.8295,-1.983407 7.21466,-2.167337 2.53095,-0.195173 5.06407,0.235074 7.56511,1.28492 2.82523,1.185926 2.88477,1.285761 2.51,4.208073 -0.42846,3.340944 0.003,3.80723 2.28709,2.468946 1.01916,-0.59727 1.26462,-0.645136 1.91877,-0.374176 1.03039,0.426799 1.46752,1.544352 1.07238,2.74162 -0.52947,1.604304 -2.02466,2.193213 -3.21775,1.267368 -1.42992,-1.109634 -2.35079,-0.827821 -2.35079,0.71942 0,0.552694 -0.13513,1.677795 -0.3003,2.500228 -0.22758,1.1332 -0.22522,1.585796 0.01,1.868895 0.35051,0.422344 1.17941,0.289769 1.63722,-0.261853 0.38011,-0.458012 1.83969,-0.480473 2.44021,-0.03755 1.13007,0.833499 0.96776,3.452926 -0.24248,3.913058 -1.04899,0.398828 -1.62425,0.306671 -2.75445,-0.441262 -1.54476,-1.022275 -1.84936,-0.650803 -1.84421,2.249141 0.002,1.255491 0.0915,2.410455 0.19844,2.566591 0.34556,0.504669 0.99937,0.593561 1.66292,0.226089 1.73806,-0.962522 3.42626,-0.02222 3.42626,1.908358 0,1.869125 -1.73935,2.786946 -3.43959,1.815004 -0.90626,-0.518067 -1.9536,-0.489664 -2.43908,0.06615 -1.06308,1.217083 -1.08945,1.818095 -0.90255,20.566447 0.0987,9.89811 0.27752,20.27315 0.39746,23.05564 0.2648,6.14352 0.56543,7.04398 2.77478,8.31114 2.30681,1.32307 5.06453,1.04516 9.44738,-0.95203 2.69597,-1.22851 4.48862,-1.35292 6.25096,-0.43381 2.03844,1.06311 2.99189,2.93021 2.99189,5.8589 0,2.28093 -0.47608,4.04328 -2.37875,8.80574 -0.85774,2.14697 -1.79605,4.9947 -2.08513,6.32828 -0.51473,2.37456 -0.56017,2.46006 -2.19804,4.13572 -3.15664,3.22944 -9.53593,8.07807 -14.79762,11.24705 -9.76435,5.88081 -20.3783,9.95082 -29.768908,11.41515 -3.195769,0.49833 -8.461163,0.50037 -11.178841,0.004 z"
       style="fill:url(#linearGradient2);stroke-width:0.264583"
       id="path1"
       sodipodi:nodetypes="csscssscssssssccsscscsccccccscscssssscsscsssscccccssssccccccsccsscccssssssssssssccscccsscccsscssscsccssssssssscssssssssssssssssssssssssscssssscssssccsssscssssssssssccs" />
  </g>
</svg>
