<?xml version="1.0" encoding="UTF-8"?>
<!-- Created with Inkscape (http://www.inkscape.org/) -->
<svg width="142.7mm" height="159.45mm" version="1.1" viewBox="0 0 142.7 159.45" xmlns="http://www.w3.org/2000/svg">
 <g transform="translate(-33.214 -68.83)">
  <path d="m100.38 228.07c-12.723-1.2393-23.177-7.2079-27.872-15.913-0.79337-1.4709-2.1317-4.6685-2.1317-5.0932 0-0.0136 2.1134-0.031 4.6964-0.0386 8.3384-0.0246 14.891-1.5481 26.679-6.2031 8.0058-3.1614 19.648-10.626 27.231-17.461 0.72824-0.65632 1.8927-1.6571 2.5878-2.224l1.2637-1.0307 0.68035 0.63382c1.0913 1.0166 4.1838 5.2432 5.2323 7.1509 2.6599 4.8396 3.9558 10.823 3.325 15.351-0.82984 5.9576-3.2228 10.802-7.3339 14.847-3.0793 3.03-5.7386 4.7698-10.122 6.6224-6.5049 2.7491-16.403 4.1202-24.235 3.3573zm36.581-7.0522c4.4931-4.0489 5.9692-5.2511 8.5562-6.9685 1.3824-0.91774 2.96-2.0172 3.5057-2.4433l0.99219-0.77465v-23.79c0-18.856-0.0686-23.79-0.33073-23.79-0.64243 1e-3 -5.3337 3.3576-7.5406 5.3948l-0.85989 0.79377-4e-5 8.6132-3e-5 8.6132-1.3502-2.1073-1.3502-2.1073-0.0385-5.2349c-0.0212-2.8792-0.0803-5.2349-0.13139-5.2349-0.0511 0-1.1823 1.0284-2.5138 2.2853-15.332 14.472-30.32 23.325-46.474 27.449-5.1953 1.3264-8.9499 1.8147-13.891 1.8064-5.1184-9e-3 -8.3227-0.49285-12.7-1.9194-6.5062-2.1205-11.395-5.1768-16.327-10.206-2.5732-2.6242-3.4423-3.7154-5.6186-7.0541-8.6686-13.299-10.187-32.866-3.5898-46.25 4.1339-8.3863 11.242-14.639 18.921-16.645 2.1573-0.5636 6.3551-0.75487 8.52-0.38823 3.3906 0.57423 7.1144 2.1427 10.676 4.4965 2.1065 1.3923 9.0452 8.1404 9.8522 9.5815l0.47281 0.84434-1.1078 0.8025c-0.6093 0.44138-1.2811 0.8025-1.4929 0.8025-0.21179 0-1.712-1.3526-3.3337-3.0059-2.8745-2.9303-6.3896-5.772-8.4228-6.8093l-1.0081-0.51431-0.0308 58.881-2.8329 5.8208-0.02336-32.842c-0.01844-25.929-0.09298-32.9-0.35409-33.115-1.0217-0.84434-7.3912-1.6311-8.3344-1.0295-0.26165 0.16689-0.33073 7.0088-0.33073 32.756v32.545l-2.7781-1.4888-0.06722-31.569-0.06722-31.569-0.59424 0.18033c-1.2962 0.39337-4.6518 2.322-6.2166 3.573l-1.6536 1.322v25.129c1.6e-5 13.821-0.07615 25.129-0.16925 25.129-0.25882 0-0.79868-0.75802-1.8844-2.6458l-0.98906-1.7198-0.13229-21.236-0.13229-21.236-1.1142 1.6569c-1.465 2.1787-2.9768 5.316-4.0073 8.3164-2.6939 7.843-2.6378 18.893 0.13835 27.289 6.0888 18.414 21.755 29.185 40.119 27.585 12.739-1.1103 26.429-6.4801 39.741-15.588 5.0585-3.4608 9.8275-7.4542 18.389-15.398 9.0749-8.4207 14.115-11.345 19.711-11.438 2.6433-0.0439 4.44 0.37606 7.1438 1.6697 5.0041 2.3943 8.6184 6.7178 10.628 12.714 2.4041 7.1726 1.6547 14.621-2.2738 22.6-3.5527 7.2154-8.8228 13.301-16.92 19.54-4.1857 3.2248-9.2924 6.0067-15.511 8.4496-5.8259 2.2887-5.9556 2.2652-2.8677-0.51739zm21.587-16.685 2.8443-2.527v-39.905l-0.99219-0.4319c-1.1768-0.51223-5.6057-0.59052-6.7469-0.11926l-0.72761 0.30048v47.419l1.3891-1.1044c0.76398-0.60741 2.669-2.2416 4.2333-3.6314zm8.0109-8.681c4.0211-5.3598 6.3003-12.204 5.8444-17.551-0.37434-4.3908-1.8512-8.2644-4.327-11.349-1.1003-1.371-3.3306-3.5003-3.6663-3.5003-0.059 0-0.10348 7.9474-0.0988 17.661 7e-3 13.925 0.0766 17.577 0.33073 17.263 0.17727-0.21863 1.04-1.3541 1.9171-2.5232zm-94.826 0.25857c-1.0725-0.19576-2.003-0.40894-2.0678-0.47374-0.18903-0.18904 1.6948-4.5898 3.0856-7.2079 0.703-1.3234 2.5841-4.419 4.1803-6.8792 4.388-6.763 5.1856-8.6613 5.1588-12.278-0.01519-2.0506-0.39054-3.3709-2.1702-7.6332-1.1768-2.8185-1.6065-4.7289-1.6065-7.1424 0-2.896 0.3921-4.5528 1.6691-7.0524 0.77502-1.5171 1.6474-2.6849 3.0796-4.1227 3.3085-3.3215 5.9842-4.607 12.221-5.871l4.1369-0.83854 0.15835-2.7859c0.3055-5.3747 0.77859-32.168 0.58994-33.41-0.19285-1.2699-1.0669-2.605-2.0499-3.1311-0.39292-0.21029-0.71507-0.14766-1.3918 0.27055-1.4292 0.8833-2.575 0.69296-3.2091-0.53308-0.52989-1.0247-0.4863-1.6357 0.17682-2.4787 0.84111-1.0693 1.6764-1.2982 2.7969-0.76654 1.5384 0.73002 1.7986 0.35604 1.7986-2.5855 0-2.3764-0.02598-2.4884-0.59618-2.5694-0.3279-0.04656-0.9095 0.1618-1.2925 0.46302-1.312 1.032-2.823 0.59162-3.2477-0.94649-0.63778-2.3098 1.2553-3.7286 3.2939-2.4686 1.4116 0.8724 1.5655 0.54853 1.2845-2.7023-0.2231-2.581-0.26914-2.7323-0.85698-2.8155-0.36235-0.05129-0.86379 0.13995-1.2033 0.45895-0.32018 0.30079-0.95548 0.62156-1.4118 0.71282-0.6662 0.13324-0.96127 0.03429-1.4979-0.50231-0.9696-0.9696-1.1399-1.9486-0.53262-3.0613 0.73131-1.34 1.6748-1.5692 2.9346-0.71312 1.163 0.79025 2.0867 0.87878 2.2577 0.21637 0.06571-0.25466-0.03182-1.1774-0.21674-2.0505-0.57798-2.729-0.50469-3.1963 0.622-3.9659 1.3918-0.9507 4.8295-1.9834 7.2147-2.1673 2.531-0.19517 5.0641 0.23507 7.5651 1.2849 2.8252 1.1859 2.8848 1.2858 2.51 4.2081-0.42846 3.3409 3e-3 3.8072 2.2871 2.4689 1.0192-0.59727 1.2646-0.64514 1.9188-0.37418 1.0304 0.4268 1.4675 1.5444 1.0724 2.7416-0.52947 1.6043-2.0247 2.1932-3.2178 1.2674-1.4299-1.1096-2.3508-0.82782-2.3508 0.71942 0 0.55269-0.13513 1.6778-0.3003 2.5002-0.22758 1.1332-0.22522 1.5858 0.01 1.8689 0.35051 0.42234 1.1794 0.28977 1.6372-0.26185 0.38011-0.45801 1.8397-0.48047 2.4402-0.03755 1.1301 0.8335 0.96776 3.4529-0.24248 3.9131-1.049 0.39883-1.6242 0.30667-2.7544-0.44126-1.5448-1.0223-1.8494-0.6508-1.8442 2.2491 2e-3 1.2555 0.0915 2.4105 0.19844 2.5666 0.34556 0.50467 0.99937 0.59356 1.6629 0.22609 1.7381-0.96252 3.4263-0.02222 3.4263 1.9084 0 1.8691-1.7394 2.7869-3.4396 1.815-0.90626-0.51807-1.9536-0.48966-2.4391 0.06615-1.0631 1.2171-1.0894 1.8181-0.90255 20.566 0.0987 9.8981 0.27752 20.273 0.39746 23.056 0.2648 6.1435 0.56543 7.044 2.7748 8.3111 2.3068 1.3231 5.0645 1.0452 9.4474-0.95203 2.696-1.2285 4.4886-1.3529 6.251-0.43381 2.0384 1.0631 2.9919 2.9302 2.9919 5.8589 0 2.2809-0.47608 4.0433-2.3788 8.8057-0.85774 2.147-1.796 4.9947-2.0851 6.3283-0.51473 2.3746-0.56017 2.4601-2.198 4.1357-3.1566 3.2294-9.5359 8.0781-14.798 11.247-9.7644 5.8808-20.378 9.9508-29.769 11.415-3.1958 0.49833-8.4612 0.50037-11.179 4e-3z" fill="#fff" stroke-width=".26458"/>
 </g>
</svg>
